<svg width="180" height="180" viewBox="0 0 180 180" fill="none" xmlns="http://www.w3.org/2000/svg">
<path d="M72.9235 35.3077C72.9235 30.4114 70.9784 25.7157 67.5162 22.2535C64.054 18.7912 59.3582 16.8462 54.4619 16.8462C49.5656 16.8462 44.8698 18.7912 41.4076 22.2535C37.9454 25.7157 36.0004 30.4114 36.0004 35.3077C36.0004 38.2868 36.0004 41.266 36.0004 44.2451C36.0004 49.9967 36.0004 55.7484 36.0004 61.5C36.0004 70.2308 36.0004 78.9616 36.0004 87.6924C35.9633 92.7066 38.0988 97.8721 41.6781 101.4C45.2059 104.979 50.3702 107.113 55.385 107.074C66.9235 106.983 78.4619 104.769 90.0004 104.769C101.539 104.769 113.077 106.983 124.616 107.074C120.089 107.111 115.402 105.177 112.214 101.94C108.977 98.752 107.043 94.0663 107.077 89.5385C107.077 98.577 107.077 107.615 107.077 116.654C107.077 122.713 107.077 128.773 107.077 134.832C107.077 137.811 107.077 140.79 107.077 143.769C107.077 148.666 109.022 153.361 112.485 156.824C115.947 160.286 120.643 162.231 125.539 162.231C130.435 162.231 135.131 160.286 138.593 156.824C142.055 153.361 144 148.666 144 143.769C144 140.79 144 137.811 144 134.832C144 128.773 144 122.713 144 116.654C144 107.615 144 98.577 144 89.5385C144.037 84.5265 141.904 79.3603 138.323 75.8314C134.794 72.2506 129.627 70.1177 124.616 70.1568C113.077 70.2476 101.539 72.4616 90.0004 72.4616C78.4619 72.4616 66.9235 70.2476 55.385 70.1568C59.9156 70.1205 64.5994 72.055 67.7863 75.2906C71.0221 78.4773 72.958 83.1623 72.9235 87.6924C72.9235 78.9616 72.9235 70.2308 72.9235 61.5C72.9235 55.7484 72.9235 49.9967 72.9235 44.2451C72.9235 41.266 72.9235 38.2868 72.9235 35.3077Z" fill="#DFE2FF"/>
<path d="M144.462 35.5385C144.462 46.1169 135.887 54.6923 125.308 54.6923C114.73 54.6923 106.154 46.1169 106.154 35.5385C106.154 24.9601 114.73 16.3846 125.308 16.3846C135.887 16.3846 144.462 24.9601 144.462 35.5385Z" fill="#4F5EFE"/>
<path d="M54.231 163.154C64.8094 163.154 73.3848 154.578 73.3848 144C73.3848 133.422 64.8094 124.846 54.231 124.846C43.6526 124.846 35.0771 133.422 35.0771 144C35.0771 154.578 43.6526 163.154 54.231 163.154Z" fill="#4F5EFE"/>
</svg>
